<svg xmlns="http://www.w3.org/2000/svg" width="100" height="100" version="1.0" viewBox="0 0 75 75"><defs><clipPath id="a"><path d="M0 16.0781h75v42.75H0Zm0 0"/></clipPath></defs><g clip-path="url(#a)"><path fill="#004aad" d="M21.4063 57.129c0 .9687-.7852 1.7577-1.7579 1.7577-.9687 0-1.7539-.7851-1.7539-1.7578 0-4.7617 1.6992-9.125 4.5196-12.5234-.8555-1.1094-1.922-2.047-3.1485-2.7422-1.5312-.8711-3.3086-1.3711-5.211-1.3711-2.91 0-5.5468 1.1797-7.453 3.086-1.9063 1.9062-3.086 4.5429-3.086 7.453 0 .9688-.7851 1.7579-1.7578 1.7579C.7891 52.789 0 52.0039 0 51.0313c0-3.879 1.5742-7.3946 4.1172-9.9376 1.1523-1.1484 2.5-2.1015 3.996-2.8007-.1796-.1524-.3515-.3125-.5195-.4766-1.6484-1.6523-2.6718-3.9375-2.6718-6.461 0-2.5234 1.0234-4.8085 2.6719-6.4609 1.6523-1.6523 3.9375-2.6758 6.4609-2.6758 2.5234 0 4.8047 1.0235 6.461 2.6758 1.6523 1.6524 2.6757 3.9375 2.6757 6.461 0 2.5234-1.0234 4.8047-2.6758 6.461-.168.164-.3398.3241-.5156.4765.3398.1601.6758.332 1 .5195 1.496.8516 2.8242 1.9688 3.9102 3.289a19.6335 19.6335 0 0 1 5.5156-3.2617 12.1313 12.1313 0 0 1-1.7383-1.4492c-2.254-2.2539-3.6484-5.371-3.6484-8.8086 0-3.4375 1.3945-6.5547 3.6484-8.8086 2.254-2.2539 5.371-3.6484 8.8086-3.6484 3.4375 0 6.5547 1.3945 8.8086 3.6484 2.2539 2.254 3.6484 5.3711 3.6484 8.8086s-1.3945 6.5547-3.6484 8.8086a12.5425 12.5425 0 0 1-1.7344 1.4492c2.0195.7813 3.879 1.8946 5.5117 3.2618 1.086-1.3203 2.414-2.4375 3.9102-3.2891.3281-.1875.664-.3594 1-.5195a11.8169 11.8169 0 0 1-.5156-.4766c-1.6524-1.6523-2.672-3.9375-2.672-6.461 0-2.5234 1.0196-4.8085 2.672-6.4609 1.6523-1.6523 3.9375-2.6758 6.4609-2.6758 2.5234 0 4.8086 1.0235 6.461 2.6758 1.6523 1.6524 2.6718 3.9375 2.6718 6.461 0 2.5234-1.0195 4.8047-2.6719 6.461-.168.164-.3359.3241-.5156.4765 1.4922.6953 2.8438 1.6523 3.9922 2.8008 2.543 2.543 4.1172 6.0585 4.1172 9.9374 0 .9688-.7852 1.7579-1.7578 1.7579-.9688 0-1.7578-.7852-1.7578-1.7578 0-2.9102-1.1797-5.547-3.086-7.4532-1.9062-1.9062-4.543-3.086-7.4531-3.086-1.8984 0-3.6797.5-5.211 1.3712-1.2226.6953-2.293 1.6328-3.1484 2.7422 2.8242 3.3984 4.5196 7.7617 4.5196 12.5234 0 .9688-.7852 1.7578-1.754 1.7578-.9687 0-1.7578-.7851-1.7578-1.7578 0-4.4414-1.8007-8.4648-4.707-11.371-2.9102-2.9102-6.9336-4.711-11.371-4.711-4.4415 0-8.465 1.8008-11.3712 4.711-2.9062 2.9062-4.707 6.9296-4.707 11.371ZM10.078 35.332c1.0157 1.0157 2.4219 1.6446 3.9727 1.6446 1.5547 0 2.957-.629 3.9726-1.6446a5.6103 5.6103 0 0 0 1.6446-3.9726c0-1.5547-.629-2.957-1.6446-3.9727-1.0156-1.0156-2.4218-1.6445-3.9726-1.6445-1.5508 0-2.957.6289-3.9727 1.6445-1.0156 1.0156-1.6445 2.418-1.6445 3.9727 0 1.5508.6289 2.957 1.6445 3.9726Zm50.8477 1.6446c1.5547 0 2.957-.629 3.9726-1.6446a5.6103 5.6103 0 0 0 1.6446-3.9726c0-1.5547-.629-2.957-1.6446-3.9727-1.0156-1.0156-2.418-1.6445-3.9726-1.6445-1.5508 0-2.957.6289-3.9727 1.6445-1.0156 1.0156-1.6445 2.418-1.6445 3.9727 0 1.5508.6289 2.957 1.6445 3.9726a5.6103 5.6103 0 0 0 3.9727 1.6446Zm-23.4375.5547c2.4687 0 4.707-1 6.3281-2.6211 1.6133-1.6172 2.6211-3.8516 2.6211-6.3243 0-2.4687-1.004-4.707-2.621-6.328-1.6173-1.6134-3.8595-2.6173-6.3282-2.6173-2.4688 0-4.7031 1.004-6.3242 2.6172-1.6172 1.6172-2.6211 3.8594-2.6211 6.3281 0 2.4688 1 4.7032 2.621 6.3243 1.6172 1.6171 3.8555 2.621 6.3243 2.621Zm0 0"/></g></svg>