<svg xmlns="http://www.w3.org/2000/svg" width="298.232" height="291"><g data-name="Group 698" transform="translate(-16059.232 -14400)"><rect data-name="Rectangle 2987" width="5" height="289" rx="2.5" transform="translate(16107.232 14400)"/><g data-name="Group 697"><path data-name="Rectangle 2974" d="m16150.859 14400.247 3.5355 3.5355-43.6518 43.6519-3.5355-3.5356z"/><rect data-name="Rectangle 2966" width="5" height="298.232" rx="2.5" transform="rotate(90 835.7325 15521.7325)"/><rect data-name="Rectangle 2988" width="187" height="5" rx="2.5" transform="translate(16107.232 14400)"/><rect data-name="Rectangle 2989" width="5" height="49" rx="2.5" transform="translate(16289.232 14401)"/><g data-name="Group 696"><rect data-name="Rectangle 2970" width="5" height="56" rx="2.5" transform="rotate(45 -9356.3338 26911.9237)"/><rect data-name="Rectangle 2967" width="5" height="56" rx="2.5" transform="rotate(45 -9436.21 26947.8379)"/><rect data-name="Rectangle 2971" width="5" height="56" rx="2.5" transform="rotate(-45 25650.5654 -12413.762)"/><g data-name="Ellipse 32" transform="translate(16263.732 14445.247)" fill="none" stroke="#000" stroke-width="5"><circle cx="27.5" cy="27.5" r="27.5" stroke="none"/><circle cx="27.5" cy="27.5" r="25"/></g><rect data-name="Rectangle 2990" width="5" height="73" rx="2.5" transform="translate(16289.232 14498)"/></g></g></g></svg>