<svg xmlns="http://www.w3.org/2000/svg" width="100" viewBox="0 0 75 75" height="100" version="1.0"><defs><clipPath id="a"><path d="M5.4531 0h63.75v75h-63.75Zm0 0"/></clipPath></defs><g clip-path="url(#a)"><path fill="#004aad" d="M68.754 62.1133c-2.0118-3.5352-4.0235-7.0664-6.0353-10.6016-1.5742-2.7617-3.1445-5.5312-4.7382-8.332a3.1271 3.1271 0 0 0 .789-.582 3.1392 3.1392 0 0 0 .871-1.7344 3.0826 3.0826 0 0 0-.0077-.9844c-.2305-2.039-.4726-4.0742-.7344-6.1055-.0586-.293.0157-.539.2305-.7422 1.418-1.4648 2.8164-2.9414 4.2188-4.414a2.9663 2.9663 0 0 0 .7148-1.0078c.168-.3828.254-.7852.2578-1.207 0-.418-.0781-.8204-.2422-1.207a3.0078 3.0078 0 0 0-.6992-1.0196c-1.3594-1.4688-2.711-2.9453-4.086-4.4024-.2812-.2617-.3788-.5859-.2968-.9609a288.842 288.842 0 0 0 .8516-6.0898c.078-.4063.0703-.8086-.0196-1.211-.0937-.4023-.2578-.7734-.5039-1.1054-.2422-.332-.539-.6055-.8945-.8165-.3555-.2109-.7383-.3437-1.1445-.3945-2.0118-.3945-4.0196-.8086-6.0352-1.1836-.3125-.043-.5313-.207-.6602-.496a793.3124 793.3124 0 0 0-3.0703-5.668c-.246-.5235-.625-.9258-1.1328-1.207-.5039-.2813-1.0469-.3907-1.625-.3282-.5078.0508-.9922.1875-1.4531.4063-1.8086.8125-3.6055 1.6601-5.3984 2.5078-.2618.1406-.5196.1406-.7774-.0078-1.8516-.918-3.711-1.8204-5.5664-2.7266a3.1945 3.1945 0 0 0-.5508-.254c-.1914-.0624-.3867-.1093-.586-.1327a2.8521 2.8521 0 0 0-.6054-.004c-.2031.0157-.3984.0587-.5937.1172-.1914.0625-.375.1407-.5508.2422-.1797.0977-.3399.2149-.4922.3477a3.1509 3.1509 0 0 0-.4102.4453 3.3266 3.3266 0 0 0-.3046.5234c-1.0157 1.8164-2.0157 3.6485-3.043 5.457-.1367.2227-.3242.3673-.5742.4337-2.047.3867-4.1016.7422-6.1524 1.0976a3.0427 3.0427 0 0 0-1.1562.3985c-.3555.2109-.6602.4843-.9063.8203-.246.336-.414.707-.5078 1.1093-.0937.4063-.1055.8165-.0312 1.2227.2617 2.0508.4843 4.1055.7422 6.1563.0507.3125-.0391.5742-.2696.7851-1.3828 1.4258-2.707 2.9102-4.1289 4.293-.3164.3008-.5586.6484-.7344 1.0469-.1718.4023-.2617.8164-.2617 1.2539-.0039.4336.082.8515.25 1.2539.168.4023.4102.7539.7227 1.0547 1.4023 1.4296 2.7265 2.9336 4.0937 4.3945.2227.1992.3047.4414.25.7344-.3047 2.0625-.5781 4.125-.875 6.1875a2.9518 2.9518 0 0 0-.0234.9453c.039.3164.1289.6172.2656.9023.1367.289.3125.5508.5313.7813a2.992 2.992 0 0 0 .75.5742c.1054.0664.2109.1367.332.211-.086.1679-.1602.3124-.2422.453C12.9687 49.6133 9.457 55.8984 5.875 62.1445c-.168.254-.2578.5313-.2656.832-.0078.3047.0625.586.2187.8477.1524.2617.3633.4649.6328.6055.2696.1406.5547.1992.8555.1758 3.6602-.0664 7.3203-.0157 10.9805-.0352a.8192.8192 0 0 1 .496.1133.8025.8025 0 0 1 .336.3828 1194.7717 1194.7717 0 0 0 4.9922 8.707c.1094.2852.2852.5118.5352.6875.25.172.5273.2579.832.2579.3047-.004.582-.0899.832-.2657.25-.1719.4258-.4023.5313-.6875C30.2344 67.9922 33.6172 62.2187 37 56.4492c.086-.1484.1836-.289.3047-.4804.1289.2109.2226.3593.3125.5156 3.3594 5.8047 6.7148 11.6133 10.0742 17.4218.1172.297.3086.5352.5703.7227.2617.1836.5508.2813.8711.2969.3203-.0195.6094-.125.8672-.3125.254-.1914.4414-.4375.5508-.7344 1.6406-2.9531 3.3047-5.8945 4.9453-8.8477.0625-.1523.164-.2695.3047-.3515.1406-.086.289-.1211.4531-.1055 3.6758.0195 7.3516.0117 11.0273.0117 1.5547-.0039 2.2305-1.1406 1.4727-2.4726Zm-55.1017-35.707c-.1093-.1211-.2109-.2461-.3398-.3946.1172-.1289.2188-.2539.3281-.371 1.3946-1.461 2.7774-2.9298 4.1836-4.375.379-.3673.6485-.797.8086-1.297.1602-.5039.1914-1.0117.0977-1.5273-.2813-1.996-.4766-4.0078-.7422-6.0078-.0664-.4766.0508-.6484.539-.7305 2.0352-.3281 4.0664-.707 6.1055-1.0586.4844-.0742.9297-.2578 1.3281-.5468.3985-.2891.707-.6524.9297-1.0938.961-1.7539 1.9414-3.5 2.914-5.246.0977-.1876.2071-.3673.3321-.586.3594.1719.6992.3281 1.0313.4922 1.664.8125 3.332 1.621 4.9922 2.4414.4218.2187.871.332 1.3476.336.4727.0038.9219-.1056 1.3477-.3204 2.0351-.9492 4.078-1.875 6.1836-2.836.746 1.4102 1.4687 2.7696 2.1914 4.129.336.6367.664 1.2812 1.0156 1.9101.2031.4102.4922.75.8633 1.0235.3672.2695.7812.4414 1.2304.5156 2.129.3906 4.2461.832 6.3711 1.2539.082.0156.1563.043.297.082-.0821.6133-.1602 1.2227-.2462 1.832-.2383 1.6875-.4922 3.375-.7148 5.0665-.0625.4296-.0274.8515.1093 1.2656.1329.4101.3555.7734.6602 1.082 1.4297 1.539 2.8555 3.082 4.2773 4.625.1094.1211.2149.2422.3438.3906l-3.293 3.4063c-.457.4726-.9101.9453-1.371 1.4101-.3438.3243-.59.707-.7422 1.1485-.1524.4453-.1915.8984-.1211 1.3594.2539 2.0664.5 4.1367.746 6.203.0196.1798.0313.3556.0547.586-.9882.168-1.957.332-2.9218.4922-1.2266.207-2.4649.3945-3.6875.6133-.461.0781-.8828.2539-1.2578.5312-.379.2774-.6758.6211-.8907 1.0391-.996 1.8086-2 3.6172-3.0039 5.4219-.0781.1406-.164.2812-.2656.4531-.1367-.0547-.2695-.1055-.3945-.164-1.875-.9141-3.7461-1.8204-5.6094-2.7462-.4297-.2226-.8867-.3398-1.3711-.3398-.4844-.004-.9414.1055-1.3711.3281-1.8945.9024-3.7969 1.789-5.6953 2.6836-.1445.0664-.2969.129-.4688.207a1169.5382 1169.5382 0 0 1-1.7968-3.375c-.4532-.8554-.8985-1.7109-1.3555-2.5664-.2148-.4414-.5195-.8085-.918-1.1015-.3984-.289-.8398-.4688-1.3281-.5352-2.121-.3476-4.2266-.7695-6.3398-1.1601-.1094-.0196-.2149-.0625-.379-.1094.125-.8984.2422-1.7852.3672-2.6758.1954-1.3789.3946-2.7617.582-4.1445.0704-.4453.0352-.879-.0976-1.3086-.1367-.4297-.3633-.8086-.6758-1.129a920.8715 920.8715 0 0 1-4.1797-4.582ZM64.457 61.6444c-3.082 0-6.168.0078-9.25-.0078-.3437-.0234-.664.0469-.961.2188-.3007.1718-.5233.414-.6718.7226-1.3672 2.4688-2.7656 4.918-4.1445 7.375-.0899.1563-.1797.3047-.3242.5547L39.5898 54c-.5351-.75-1.2617-1.1602-2.1757-1.2383-.5118-.0078-.9922.1055-1.4453.336-.457.2343-.8282.5585-1.1211.9726-4.6993 8.1133-6.5352 11.3516-7.1055 12.418-.1563.2969-.9102 1.586-1.914 3.3242-.0782.1406-.168.2695-.2852.457-.9024-1.5586-1.7735-3.0586-2.6407-4.5625-.6054-1.0468-1.2226-2.0937-1.8203-3.1484-.1523-.3008-.375-.5352-.664-.7031-.293-.168-.6055-.2383-.9414-.2188-3.1016.0196-6.1993.0078-9.3008.0078h-.625c.0976-.1914.1562-.332.2304-.4648a24362.7047 24362.7047 0 0 0 9.6954-17.1758c.0546-.1484.1523-.2578.2968-.3203.1407-.0664.2891-.0742.4336-.0195 1.1094.2304 2.2305.3867 3.3399.6132.246.0665.4375.207.5742.422 1.0117 1.8202 2.0039 3.6523 2.9883 5.4843.168.3828.4023.7148.711.996.3046.2852.6562.4923 1.0507.629.3945.1328.7969.1836 1.2148.1484a2.9198 2.9198 0 0 0 1.168-.3515c.9531-.3828 1.8828-.8086 2.793-1.2852.7617-.4414 1.5976-.75 2.3672-1.1914.2304-.1445.4804-.2148.75-.2187.1875 0 .3672.039.5351.121 1.8047.8946 3.6406 1.7344 5.4258 2.672.375.203.7773.3241 1.1992.3632.4258.039.8399-.0039 1.2461-.1328.4063-.129.7734-.3281 1.0977-.6055.3242-.2773.578-.6054.7695-.9883.9102-1.7968 1.9531-3.5273 2.914-5.3007.1407-.3008.375-.4688.707-.504 1.1837-.1992 2.3595-.4101 3.5313-.6484.1329-.0508.2618-.043.3907.0117.125.0586.2148.1524.2656.2852a4986.3915 4986.3915 0 0 0 8.711 15.3594c.3788.664.7577 1.336 1.1913 2.1054Zm-27.2343-20.711a14.6234 14.6234 0 0 0 2.8867-.2655c.9531-.1836 1.8789-.461 2.7773-.8242a14.7415 14.7415 0 0 0 2.5625-1.3555 14.666 14.666 0 0 0 2.254-1.8242 15.0637 15.0637 0 0 0 1.8476-2.2305 14.7488 14.7488 0 0 0 1.3789-2.5508 14.378 14.378 0 0 0 .8555-2.7695 14.617 14.617 0 0 0 .2968-2.8828c.0078-.9727-.086-1.9336-.2695-2.8867a14.6514 14.6514 0 0 0-.8281-2.7774c-.3711-.8984-.8203-1.7539-1.3594-2.5625a14.8502 14.8502 0 0 0-1.8281-2.25 14.8965 14.8965 0 0 0-2.2344-1.8476c-.8047-.5391-1.6563-1-2.5508-1.375-.8984-.375-1.8203-.6563-2.7734-.8516a14.851 14.851 0 0 0-2.8828-.293c-.9727 0-1.9336.0899-2.8867.2774-.9532.1875-1.879.4648-2.7735.8359a14.4987 14.4987 0 0 0-2.5625 1.3594c-.8086.5351-1.5547 1.1484-2.246 1.832a14.7093 14.7093 0 0 0-1.8438 2.2383 14.8698 14.8698 0 0 0-1.3711 2.5547 14.9111 14.9111 0 0 0-.8438 2.7695 14.618 14.618 0 0 0-.289 2.8867c0 .9649.0937 1.9219.2851 2.8711.1875.9453.4649 1.8672.836 2.7617a14.743 14.743 0 0 0 1.3554 2.547 14.4887 14.4887 0 0 0 1.8203 2.2343 14.9756 14.9756 0 0 0 2.2227 1.8437c.8008.5391 1.6484.9961 2.539 1.3711.8907.379 1.8087.664 2.754.8594a14.7431 14.7431 0 0 0 2.871.3047Zm.1093-26.6093c.7774.004 1.547.0781 2.3125.2344.7617.1523 1.5.3789 2.2188.6758.7187.3008 1.3984.668 2.0469 1.1015a11.787 11.787 0 0 1 1.789 1.4766 11.5702 11.5702 0 0 1 1.4688 1.7969c.4297.6484.793 1.332 1.0898 2.0508.2969.7187.5195 1.4609.668 2.2265.1484.7617.2226 1.5313.2187 2.3086 0 .7774-.078 1.5469-.2343 2.3125-.1524.7617-.379 1.5-.6797 2.2188a11.978 11.978 0 0 1-1.1016 2.043 11.8123 11.8123 0 0 1-1.4805 1.789 11.8293 11.8293 0 0 1-1.8007 1.4687c-.6485.4297-1.332.7891-2.0508 1.086-.7188.293-1.461.5156-2.2227.664-.7656.1485-1.5351.2227-2.3125.2188a11.8228 11.8228 0 0 1-2.3125-.2383 11.9448 11.9448 0 0 1-2.2187-.6836 11.696 11.696 0 0 1-2.039-1.1054c-.6446-.4336-1.2423-.9258-1.7892-1.4805a11.8043 11.8043 0 0 1-1.4648-1.8008c-.4297-.6484-.789-1.336-1.086-2.0547-.293-.7187-.5117-1.461-.66-2.2265a11.7303 11.7303 0 0 1-.215-2.3086c.004-.7774.086-1.543.2422-2.3008.1563-.7617.3829-1.4961.6836-2.211a11.7626 11.7626 0 0 1 1.1016-2.0351 11.5384 11.5384 0 0 1 1.4766-1.7813c.5468-.5468 1.1484-1.0351 1.793-1.4648a12.0305 12.0305 0 0 1 2.043-1.086 12.0673 12.0673 0 0 1 2.2148-.668c.7578-.1484 1.5273-.2265 2.3007-.2265Zm-6.6914 13.6836c-.168-.1445-.2968-.3203-.3906-.5195a1.6378 1.6378 0 0 1-.1523-.6367c-.004-.2188.0312-.4336.1132-.6407.082-.207.2032-.3867.3594-.543a1.632 1.632 0 0 1 .5469-.3554c.207-.0781.4219-.1172.6445-.1094.2227.0117.4336.0625.6328.1563.1992.0976.3711.2304.5157.3984.6914.6758 1.3593 1.3711 2.078 2.1016l4.336-4.3438c.7774-.7773 1.5508-1.5547 2.3281-2.3281a1.5518 1.5518 0 0 1 .5196-.4102c.2031-.1015.418-.1562.6445-.168a1.5593 1.5593 0 0 1 .6523.1055c.211.082.3946.2032.5547.3633.1602.1563.2813.3438.3633.5547.082.207.1172.4258.1094.6524a1.5266 1.5266 0 0 1-.164.6406c-.1016.2031-.2344.3789-.4102.5234a2875.7411 2875.7411 0 0 1-7.7149 7.7227c-.1523.1718-.332.3086-.543.4062a1.5727 1.5727 0 0 1-.6562.1407 1.6038 1.6038 0 0 1-.6601-.1407 1.5857 1.5857 0 0 1-.5391-.4062c-1.0625-1.043-2.1211-2.0977-3.168-3.164Zm0 0"/></g></svg>