<svg xmlns="http://www.w3.org/2000/svg" width="100" height="100" version="1.0" viewBox="0 0 75 75"><defs><clipPath id="a"><path d="M.4766 0h74.25v75H.4766Zm0 0"/></clipPath></defs><g clip-path="url(#a)"><path fill="#004aad" d="M70.8633 11.5938c-7.7813-.0157-15.5664-.0274-23.3516-.0274h-4.0273c-.1953-.0156-.3828.0117-.5664.0781a1.4263 1.4263 0 0 0-.4805.3086c-.1367.1367-.2383.2969-.3086.4805-.0664.1836-.0937.371-.0781.5664l.0469 8.5117c-3.7344-.9414-6.457-.1484-8.3125 2.4219a6.9798 6.9798 0 0 0-.957 1.8477c-.2227.668-.3477 1.3515-.3634 2.0546a6.9807 6.9807 0 0 0 .2618 2.0664c.1914.6758.4804 1.3047.8672 1.8946 1.7617 2.7304 4.3007 3.5625 8.4609 2.7422v7.3164H32.832c-.5703-.004-1.3086 0-1.6562.7773-.3281.7266.0898 1.2383.461 1.6914.4335.5117.7265 1.0899.8866 1.7383.1563.6484.1563 1.3008 0 1.9492-.0898.4414-.246.8516-.4648 1.2422a4.2454 4.2454 0 0 1-.8203 1.043c-.3281.3047-.6914.5547-1.0977.746a4.2453 4.2453 0 0 1-1.2695.375c-.4297.0548-.8594.0508-1.2852-.0195a4.4527 4.4527 0 0 1-1.2265-.3906 4.396 4.396 0 0 1-1.0625-.7305 4.4147 4.4147 0 0 1-.8047-1c-.2266-.3867-.3906-.7968-.4883-1.2304-.1016-.4375-.1289-.879-.0898-1.3242a4.0555 4.0555 0 0 1 .3164-1.2852c.1718-.414.4023-.789.6914-1.129.2695-.1991.4414-.457.5234-.7812.0781-.3203.0469-.6328-.0976-.9335-.1407-.297-.3633-.5196-.6641-.6602-.3008-.1367-.6133-.168-.9336-.082H13.5195c-1.2226 0-1.6758.4492-1.6797 1.6484V70.5703c-.0117.2734.004.543.047.8125a3.853 3.853 0 0 0 .2109.789c.0976.2579.2187.5.3671.7305.1485.2305.3204.4415.5118.6368a3.971 3.971 0 0 0 .6328.5156 4.017 4.017 0 0 0 .7265.3789c.254.0977.5157.1719.7852.2148.2695.047.543.0625.8164.0547 9.1523.004 18.3047.004 27.457 0 9.1524-.0039 18.3047-.0039 27.457 0 .2735.0156.547.004.8165-.039.2695-.043.5351-.1094.793-.207.2538-.0977.5-.2227.7304-.3712.2305-.1484.4414-.3203.6367-.5117a4.2734 4.2734 0 0 0 .5156-.6367 3.8916 3.8916 0 0 0 .3711-.7305 3.921 3.921 0 0 0 .211-.789c.039-.2696.0547-.543.039-.8164.0079-18.3047.0079-36.6094 0-54.9141.0157-.2734 0-.543-.043-.8164a3.8849 3.8849 0 0 0-.2109-.7852 3.6403 3.6403 0 0 0-.371-.7265c-.1485-.2305-.3165-.4414-.5118-.6328-.1914-.1953-.4062-.3633-.6328-.5118a3.9805 3.9805 0 0 0-.7266-.371c-.2578-.0977-.5195-.168-.789-.207-.2695-.043-.543-.0587-.8164-.043ZM42.8008 61.164c-.2735.164-.4766.3906-.6094.6836-.1289.289-.168.5937-.1133.9062.0196 2.4922.0157 4.9844.0157 7.4766v1.6718a1.0721 1.0721 0 0 1-.0313.1954H16.4141c-1.582 0-1.9454-.3633-1.9454-1.9375V44.5078H21.75c-.8594 3.8555-.0508 6.4922 2.5313 8.289.5742.4024 1.1953.7071 1.8671.922.668.2148 1.3516.3242 2.0547.332a7.0704 7.0704 0 0 0 2.0586-.293 6.9942 6.9942 0 0 0 1.8828-.8906c2.6485-1.7695 3.4688-4.3555 2.6407-8.3672h7.2578c.0195.121.0312.246.0312.371l-.0117 2.465c-.0156 2.1913-.0273 4.4609 0 6.6913.043.5508.2852.9883.7227 1.3204.7187.4843 1.4375-.1329 1.6718-.336a4.4431 4.4431 0 0 1 .7657-.543 4.2665 4.2665 0 0 1 .8593-.3632 4.3598 4.3598 0 0 1 .922-.172 4.4315 4.4315 0 0 1 .9374.0313c.3125.043.6133.1211.9063.2305.2968.1094.5742.25.8398.418.2617.1719.5078.3672.7266.5898a4.216 4.216 0 0 1 .5859.7305c.168.2656.3086.5469.414.8398.1094.297.1837.5977.2266.9102.043.3125.0508.625.0274.9375a4.5912 4.5912 0 0 1-.1758.918 4.566 4.566 0 0 1-.3711.8632c-.1523.2735-.336.5274-.543.7618a4.3943 4.3943 0 0 1-.6953.625c-.2578.1836-.5273.3398-.8164.4648-.371.1758-.7578.2969-1.164.3555-.4063.0625-.8126.0586-1.2188-.004-.4063-.0585-.793-.1796-1.164-.3593-.3712-.1797-.7071-.4063-1.0079-.6875-.2031-.254-.4648-.418-.7851-.4922-.3203-.0742-.629-.043-.9258.0977Zm27.6758 10.9375H44.75V64.793c3.8047 1.121 6.7148.0625 8.6602-3.1485.3554-.5937.6093-1.2265.7656-1.9023a6.6537 6.6537 0 0 0 .1523-2.043 6.7503 6.7503 0 0 0-.4804-1.996c-.2657-.6407-.6172-1.2227-1.0625-1.754-2.0782-2.496-4.7891-3.2304-8.0547-2.1875v-7.2969a1.2023 1.2023 0 0 1 .2383-.0234h1.5234c2.539 0 5.082 0 7.621.0117h.0391c.3008.0508.5899.004.8633-.1328.2696-.1406.4766-.3476.6133-.621.1133-.2891.1328-.5821.0625-.8829-.0703-.3047-.2187-.5586-.4492-.7656a4.1248 4.1248 0 0 1-.5742-.8438 4.2368 4.2368 0 0 1-.3633-.957c-.082-.336-.125-.6719-.125-1.0156a4.2184 4.2184 0 0 1 .1133-1.0157c.078-.3359.1914-.6562.3476-.9648a4.2314 4.2314 0 0 1 .5625-.8516c.2188-.2656.4688-.496.7461-.6992a4.5625 4.5625 0 0 1 .8906-.5078 4.3243 4.3243 0 0 1 .9805-.2812 4.4875 4.4875 0 0 1 1.0234-.047c.3438.0274.6758.09 1.004.1954.328.1055.6367.246.9296.4219.293.1797.5625.3906.8086.6328.2422.2383.4532.5078.6368.7969.1796.293.3242.6015.4296.9297.1094.3242.1758.6601.207 1 .047.5898-.0195 1.1601-.207 1.7187s-.4804 1.0547-.875 1.4922c-.246.1953-.4062.4453-.4804.7539-.0742.3047-.043.6016.086.8867.1562.2813.3788.4922.6679.6328.289.1367.5898.1797.9062.1211 2.3633-.0195 4.7227-.0156 7.125-.0117h2.2657v.0547c.0156.1875.0273.3633.0273.539V70.172c.004 1.5156-.4023 1.9297-1.8984 1.9297Zm1.9023-30.3204h-7.3281c1.1172-3.7734.086-6.6718-3.0781-8.625a6.5406 6.5406 0 0 0-1.9102-.789c-.6797-.164-1.3672-.2227-2.0664-.168a6.5392 6.5392 0 0 0-2.0156.4727 6.5572 6.5572 0 0 0-1.7735 1.0664c-2.5117 2.086-3.246 4.793-2.1914 8.0547h-7.332v-9.2461c.082-.3203.0547-.629-.082-.9297-.1368-.2969-.3516-.5195-.6485-.668-.2968-.1445-.6054-.1797-.9258-.1015-.3242.0742-.582.2421-.7851.5039-.4258.3632-.9024.6328-1.4336.8086-.5313.1718-1.0781.2421-1.6328.203-.5586-.035-1.0899-.1757-1.5938-.4179-.5-.246-.9414-.5742-1.3164-.9883-.375-.414-.6601-.8828-.8593-1.4062a4.416 4.416 0 0 1-.2813-1.6211 4.3827 4.3827 0 0 1 .3398-1.6094c.2149-.5156.5196-.9726.9102-1.375.3867-.3984.836-.7148 1.3477-.9375a4.2203 4.2203 0 0 1 1.6054-.3633c.5586-.0156 1.0977.0703 1.625.2657.5235.1953.9883.4804 1.4024.8593.211.2383.4726.3828.7851.4375.3125.0547.6094.004.8867-.1484.2579-.1602.4493-.379.5743-.6563.1289-.2773.168-.5664.125-.8671-.0274-2.3399-.0235-4.6329-.0196-7.0547v-2.2461h.0547c.1875-.0157.3633-.0274.539-.0274h25.2227c1.461 0 1.8594.4063 1.8594 1.8907V34.957ZM17.5195 30.1016l1.5235.6093c1.3945.5547 2.7617 1.1016 4.125 1.6368.9883.3906 1.621.1445 1.9922-.7735 1.0234-2.5273 2.082-5.1445 3.0742-7.789.1601-.5352.0742-1.0313-.2578-1.4883-.2813-.3164-.875-.3125-1.3633-.3047-.2578.0078-.5156.0351-.7656.086-.3868.0585-.7696.039-1.1524-.047a3.1346 3.1346 0 0 1-1.0508-.4648 3.0626 3.0626 0 0 1-.8125-.8203c-.2148-.3242-.3672-.6797-.4492-1.0586a3.0116 3.0116 0 0 1-.0351-1.1523c.0625-.3868.1953-.7461.3945-1.082.1992-.336.4492-.625.7578-.8673a3.0832 3.0832 0 0 1 1.0273-.5234c.3438-.1094.6954-.1523 1.0547-.1367.3633.0156.711.0898 1.043.2304.332.1368.6328.3243.8984.5704.2696.2421.4844.5234.6524.8398.1953.3398.6601 1.1328 1.457.8867.5235-.1953.9024-.5508 1.1328-1.0625.8516-2.0273 1.6719-4.1015 2.4649-6.1133l.5156-1.2968c.4414-1.1211.1914-1.707-.9453-2.164-1.1328-.4532-2.2422-.8907-3.3633-1.336l-6.1172-2.4258c-3.3555-1.332-6.711-2.664-10.0664-3.9922-.2148-.1016-.4336-.1836-.6601-.2383a3.2424 3.2424 0 0 0-.6954-.0976 3.2621 3.2621 0 0 0-.703.0507c-.2306.0391-.4532.1055-.672.1954-.2187.0859-.4257.1992-.621.328-.1954.1329-.3712.2852-.5352.4532-.164.1719-.3086.3555-.4297.5547a3.3885 3.3885 0 0 0-.3086.6328C5.9844 8.543 3.3594 15.1524.7461 21.7695a1.33 1.33 0 0 0-.1914.6055 1.3592 1.3592 0 0 0 .1094.621c.0859.1993.2148.3673.3828.508.168.1366.3594.2265.5703.2733 1.1172.4532 2.2383.8985 3.3594 1.3477l1.914.7656c.1328.0508.2578.1133.3946.1719a5.6676 5.6676 0 0 0-.9141 1.5352 5.6029 5.6029 0 0 0-.3867 1.746 5.5674 5.5674 0 0 0 .1836 1.7774c.1562.582.3984 1.125.7265 1.6289.4727.8398 1.125 1.504 1.961 1.9883.832.4844 1.7304.7265 2.6914.7265.2968 0 .5937-.0234.8867-.0664 2.8828-.414 4.5937-2.1953 5.086-5.2968Zm-8.7422.6132a3.096 3.096 0 0 1-.164-.996c0-.3438.0508-.6758.1601-1a3.1205 3.1205 0 0 1 .4727-.8946 3.184 3.184 0 0 1 .7344-.6953c.086-.0586.1797-.1133.2695-.168.4688-.2812 1.0508-.6289.9414-1.4609-.1094-.8281-.7695-1.0664-1.3008-1.2578-.082-.0313-.164-.0586-.2422-.0899l-6.0703-2.4062.0352-.0977c.0781-.207.1484-.4062.2265-.6054l.4102-1.0352C6.4766 14.4063 8.7031 8.8086 10.9375 3.211c.3398-.8632.6406-1 1.4648-.6757 5.2422 2.078 10.4844 4.1562 15.7227 6.2421l2.6172 1.0391c.0664.0274.1328.0586.2187.1016l-1.8554 4.6797c-2.5078-1.754-4.9375-1.7696-7.2149-.0508-.4375.3086-.8164.6758-1.1445 1.1015-.3242.4258-.582.8868-.7656 1.3907a5.2863 5.2863 0 0 0-.3282 1.5507c-.0312.5352.0196 1.0625.1446 1.582.5586 2.6563 2.3203 4.2227 5.2343 4.6602l-1.8632 4.6953-6.082-2.4101a1.476 1.476 0 0 1-.1368-.0664 1.1026 1.1026 0 0 0-.4531-.1445h-.3086c-.414-.0626-.8008.0117-1.164.2265-.3243.2695-.332.8594-.336 1.336v.0859a5.972 5.972 0 0 0 .0625.793c.0586.3242.0703.6523.039.9804-.0585.336-.1718.6524-.3359.9532a2.9963 2.9963 0 0 1-.6289.789 3.0834 3.0834 0 0 1-.8515.539c-.3164.1329-.6407.2071-.9805.2305-.3477.0274-.6914-.0039-1.0313-.0898a3.0857 3.0857 0 0 1-.9414-.418 3.247 3.247 0 0 1-.7578-.703c-.211-.2774-.371-.5821-.4844-.9142Zm0 0"/></g></svg>